<?xml version="1.0" encoding="utf-8"?>
<!-- Generator: Adobe Illustrator 18.0.0, SVG Export Plug-In . SVG Version: 6.00 Build 0)  -->
<!DOCTYPE svg PUBLIC "-//W3C//DTD SVG 1.1//EN" "http://www.w3.org/Graphics/SVG/1.1/DTD/svg11.dtd">
<svg version="1.1" id="Layer_1" xmlns="http://www.w3.org/2000/svg" xmlns:xlink="http://www.w3.org/1999/xlink" x="0px" y="0px"
	 width="560px" height="560px" viewBox="200 0 560 560" style="enable-background:new 200 0 560 560;" xml:space="preserve">
<style type="text/css">
	.st0{fill:#FFFFFF;}
	.st1{fill:#00B1AC;}
</style>
<rect x="201.4" class="st0" width="558.6" height="560"/>
<g>
	<g>
		<path class="st1" d="M576.7,373.7"/>
		<path class="st1" d="M564.2,370.8V265.2c0-31.3,8.1-52.7,24.3-63.4c22.2-14.9,50.3-3.4,51.6-3l3.9,1.5V384
			c0,89.9-73.2,163.1-163.2,163.1S317.5,473.9,317.5,384V245.2h12.4v139c0,83.1,67.7,150.7,150.8,150.7s150.8-67.5,150.8-150.7
			V208.9c-7.3-2.1-23.6-5.4-36.1,3.2c-12.4,8.4-18.7,26.2-18.7,53.2V371"/>
	</g>
	<g>
		<path class="st1" d="M513.1,297.4h-12.4V50.1c0-13.5-10.8-24.8-23.6-25c-13,0.1-23.8,11.6-23.8,25v247.3h-12.4V50.1
			c0-20,16.4-36.9,35.8-37.4l0,0h0.7c19.7,0.3,35.7,17,35.7,37.4V297.4L513.1,297.4z"/>
	</g>
	<g>
		<path class="st1" d="M453.3,297.4h-12.4V98.2c0-13.1-12-24.5-25.8-24.5H414c-13.4,0-24.3,11-24.3,24.5v199.3h-12.4V98.2
			c0-20.3,16.4-36.8,36.7-36.8h1.1c20.7,0,38,16.8,38,36.8v199.2H453.3z"/>
	</g>
	<g>
		<path class="st1" d="M329.9,379.7h-12.4V181.6c0-20.4,16.3-37.8,35.7-38l0,0l0,0l0,0c0.1,0,0.3,0,0.6,0l0,0
			c19.6,0.3,36,17.6,36,38v115.8h-12.4V181.6c0-13.6-11.2-25.5-23.8-25.6c-12.8,0.1-23.6,11.9-23.6,25.6V379.7z"/>
	</g>
	<g>
		<path class="st1" d="M576.7,297.4h-12.4V75.4c0-12.8-12-24.1-25.6-24.1h-1c-13.5,0-24.5,10.9-24.5,24.1v222.1h-12.4V75.4
			c0-20.1,16.5-36.5,36.9-36.5h1c20.5,0,37.9,16.7,37.9,36.5v222.1H576.7z"/>
	</g>
</g>
</svg>
